<svg xmlns="http://www.w3.org/2000/svg" width="83" height="79.048" viewBox="0 0 83 79.048">
  <g id="_30-appointment" data-name="30-appointment" transform="translate(-5.262 -25.523)">
    <g id="linear_color" data-name="linear color" transform="translate(5.262 25.523)">
      <path id="Path_209" data-name="Path 209" d="M88.262,34.086a1.976,1.976,0,0,0-1.976-1.976h-8.8a8.561,8.561,0,0,0-16.661,0h-3.1a8.561,8.561,0,0,0-16.661,0h-3.1a8.561,8.561,0,0,0-16.661,0H17.777a1.991,1.991,0,0,0-1.92,1.51L5.318,77.1a1.976,1.976,0,0,0,1.92,2.442H15.8v7.246a1.976,1.976,0,0,0,1.976,1.976h34.98a17.786,17.786,0,0,0,35.456-1.543c0-.208.049-53.131.049-53.131ZM84.309,75.673a17.95,17.95,0,0,0-2.635-2.661V60.435a1.976,1.976,0,0,0-3.952,0V70.562a17.638,17.638,0,0,0-4.508-1.345l8.038-33.154h3.057ZM19.332,36.062H21.3a8.576,8.576,0,0,0,8.331,6.587,1.976,1.976,0,1,0,0-3.952,4.616,4.616,0,0,1-4.165-2.635h15.6A8.576,8.576,0,0,0,49.4,42.649a1.976,1.976,0,0,0,0-3.952,4.616,4.616,0,0,1-4.165-2.635h15.6a8.576,8.576,0,0,0,8.331,6.587,1.976,1.976,0,1,0,0-3.952,4.616,4.616,0,0,1-4.165-2.635H77.184l-2.236,9.222H17.1Zm49.826-6.587a4.617,4.617,0,0,1,4.165,2.635h-8.33a4.616,4.616,0,0,1,4.165-2.635Zm-19.762,0a4.617,4.617,0,0,1,4.165,2.635h-8.33A4.616,4.616,0,0,1,49.4,29.475Zm-19.762,0A4.617,4.617,0,0,1,33.8,32.11H25.47a4.616,4.616,0,0,1,4.165-2.635Zm-13.5,19.762H73.99l-4.8,19.806a17.767,17.767,0,0,0-12.562,6.543H9.75Zm3.616,30.3H54.191a17.643,17.643,0,0,0-1.434,5.27h-33Zm52.656,20.936V98.641a1.976,1.976,0,0,0-3.952,0v1.833A13.861,13.861,0,0,1,56.743,88.76h1.833a1.976,1.976,0,1,0,0-3.952H56.743A13.861,13.861,0,0,1,68.456,73.094v1.833a1.976,1.976,0,0,0,3.952,0V73.094A13.861,13.861,0,0,1,84.122,84.808H82.29a1.976,1.976,0,1,0,0,3.952h1.833A13.861,13.861,0,0,1,72.409,100.474Z" transform="translate(-5.262 -25.523)" fill="#00ddde"/>
      <path id="Path_210" data-name="Path 210" d="M251.241,193.473h5.27a1.976,1.976,0,0,0,0-3.952h-5.27a1.976,1.976,0,0,0,0,3.952Z" transform="translate(-209.082 -162.514)" fill="#00ddde"/>
      <path id="Path_211" data-name="Path 211" d="M171.241,193.473h5.27a1.976,1.976,0,0,0,0-3.952h-5.27a1.976,1.976,0,0,0,0,3.952Z" transform="translate(-142.257 -162.514)" fill="#00ddde"/>
      <path id="Path_212" data-name="Path 212" d="M91.241,193.473h5.27a1.976,1.976,0,1,0,0-3.952h-5.27a1.976,1.976,0,1,0,0,3.952Z" transform="translate(-75.431 -162.514)" fill="#00ddde"/>
      <path id="Path_213" data-name="Path 213" d="M331.241,193.473h5.27a1.976,1.976,0,1,0,0-3.952h-5.27a1.976,1.976,0,1,0,0,3.952Z" transform="translate(-275.908 -162.514)" fill="#00ddde"/>
      <path id="Path_214" data-name="Path 214" d="M235.241,241.473h5.27a1.976,1.976,0,0,0,0-3.952h-5.27a1.976,1.976,0,0,0,0,3.952Z" transform="translate(-195.717 -202.609)" fill="#00ddde"/>
      <path id="Path_215" data-name="Path 215" d="M155.241,241.473h5.27a1.976,1.976,0,1,0,0-3.952h-5.27a1.976,1.976,0,1,0,0,3.952Z" transform="translate(-128.892 -202.609)" fill="#00ddde"/>
      <path id="Path_216" data-name="Path 216" d="M75.241,241.473h5.27a1.976,1.976,0,0,0,0-3.952h-5.27a1.976,1.976,0,1,0,0,3.952Z" transform="translate(-62.066 -202.609)" fill="#00ddde"/>
      <path id="Path_217" data-name="Path 217" d="M315.241,241.473h5.27a1.976,1.976,0,1,0,0-3.952h-5.27a1.976,1.976,0,1,0,0,3.952Z" transform="translate(-262.543 -202.609)" fill="#00ddde"/>
      <path id="Path_218" data-name="Path 218" d="M227.241,289.473h5.27a1.976,1.976,0,0,0,0-3.952h-5.27a1.976,1.976,0,0,0,0,3.952Z" transform="translate(-189.035 -242.704)" fill="#00ddde"/>
      <path id="Path_219" data-name="Path 219" d="M147.241,289.473h5.27a1.976,1.976,0,1,0,0-3.952h-5.27a1.976,1.976,0,1,0,0,3.952Z" transform="translate(-122.209 -242.704)" fill="#00ddde"/>
      <path id="Path_220" data-name="Path 220" d="M74.487,287.5a1.976,1.976,0,0,0-1.976-1.976h-5.27a1.976,1.976,0,1,0,0,3.952h5.27A1.976,1.976,0,0,0,74.487,287.5Z" transform="translate(-55.384 -242.704)" fill="#00ddde"/>
      <path id="Path_221" data-name="Path 221" d="M368.116,354.1l-4.263,4.263-4-2a1.976,1.976,0,1,0-1.767,3.535l5.27,2.635a1.976,1.976,0,0,0,2.281-.37l5.27-5.27a1.976,1.976,0,1,0-2.795-2.795Z" transform="translate(-299.073 -299.506)" fill="#00ddde"/>
    </g>
  </g>
</svg>
