<svg xmlns="http://www.w3.org/2000/svg" width="84.72" height="89.719" viewBox="0 0 84.72 89.719">
  <g id="doctor" transform="translate(-8 -8)">
    <circle id="Ellipse_82" data-name="Ellipse 82" cx="1.5" cy="1.5" r="1.5" transform="translate(43 31)" fill="#00d7df"/>
    <circle id="Ellipse_83" data-name="Ellipse 83" cx="1.5" cy="1.5" r="1.5" transform="translate(56 31)" fill="#00d7df"/>
    <path id="Path_231" data-name="Path 231" d="M87.937,25.365H68.124V23.918C68.114,15.131,61.39,8.01,53.093,8H47.627c-8.3.01-15.022,7.131-15.031,15.918v1.447H12.783A4.935,4.935,0,0,0,8,30.43V81.077a4.935,4.935,0,0,0,4.783,5.065H40.494l-.82,4.341H35.329a1.408,1.408,0,0,0-1.366,1.447v2.894H27.13a1.449,1.449,0,0,0,0,2.894H70.857a1.449,1.449,0,0,0,0-2.894h-4.1V91.93a1.408,1.408,0,0,0-1.366-1.447H61.018L60.1,86.142H87.937a4.935,4.935,0,0,0,4.783-5.065V30.43a4.935,4.935,0,0,0-4.783-5.065ZM68.124,32.6v5.788a1.41,1.41,0,0,1-1.366,1.447H65.391V31.153h1.366A1.41,1.41,0,0,1,68.124,32.6ZM35.329,23.918c.008-7.189,5.509-13.015,12.3-13.024h5.466c6.789.008,12.29,5.834,12.3,13.024v4.341H64.024c-2.453,0-5.76-5.311-6.976-7.883a1.355,1.355,0,0,0-1.32-.8,1.383,1.383,0,0,0-1.2.987c-.106.338-1.05,2.171-9.2,5.048-4.038,1.425-8,2.444-8.8,2.645H35.329Zm22.76,14.368-7.5-1.324a1.259,1.259,0,0,0-.451,0l-7.5,1.324-4.569-4.837v-2.6c1.6-.421,4.8-1.308,8.118-2.48,5.329-1.881,8.042-3.464,9.456-4.745.441.769,1,1.688,1.659,2.612,1.828,2.581,3.626,4.153,5.363,4.7v2.516Zm4.569-.745v5.19a10.485,10.485,0,0,1-2.733,7.085V40.434Zm-4.1,37.025h2.733a1.449,1.449,0,0,0,0-2.894H60.159a4.028,4.028,0,0,1,7.731,0H66.757a1.449,1.449,0,0,0,0,2.894H69.49a1.409,1.409,0,0,0,1.366-1.447,7.159,7.159,0,0,0-5.466-7.091V62.177l4.183,1.044A12.841,12.841,0,0,1,79.055,75.9v.116H21.664V75.9A12.841,12.841,0,0,1,31.146,63.22l4.183-1.044v3.706a1.616,1.616,0,0,0,.021.242,4.375,4.375,0,0,0-2.7,4.823,4.067,4.067,0,0,0,8.084,0,4.375,4.375,0,0,0-2.7-4.823,1.617,1.617,0,0,0,.02-.242V61.542c0-.014,0-.029,0-.045l4.349-1.083a8.086,8.086,0,0,0,7.951,5.47,8.086,8.086,0,0,0,7.951-5.47L62.66,61.5c0,.016,0,.031,0,.045v4.486a7.159,7.159,0,0,0-5.466,7.091A1.408,1.408,0,0,0,58.559,74.566ZM36.7,68.777a1.449,1.449,0,1,1-1.366,1.447A1.408,1.408,0,0,1,36.7,68.777Zm6.832-15.918v-11.8l6.832-1.207,6.832,1.207v11.8Zm12.3,2.894v2.894c0,2.393-2.453,4.341-5.466,4.341s-5.466-1.948-5.466-4.341V55.754ZM40.795,40.434v9.381a10.485,10.485,0,0,1-2.733-7.085V37.54Zm-6.832-9.281h1.366v8.682H33.962A1.41,1.41,0,0,1,32.6,38.389V32.6A1.41,1.41,0,0,1,33.962,31.153Zm-23.23-.724a2.115,2.115,0,0,1,2.05-2.171H32.6v.25A4.339,4.339,0,0,0,29.863,32.6v5.788a4.231,4.231,0,0,0,4.1,4.341h1.366a13.293,13.293,0,0,0,5.466,10.83v.747a1.408,1.408,0,0,0,1.366,1.447V57.5l-11.64,2.9A15.7,15.7,0,0,0,18.932,75.9v.116h-8.2ZM64.024,93.378v1.447H36.7V93.378ZM42.462,90.483l.82-4.341H57.295l.922,4.341Zm47.525-9.406a2.115,2.115,0,0,1-2.05,2.171H12.783a2.115,2.115,0,0,1-2.05-2.171V78.907H89.987Zm0-5.065h-8.2V75.9A15.7,15.7,0,0,0,70.2,60.4l-11.64-2.9V55.754a1.408,1.408,0,0,0,1.366-1.447v-.747a13.293,13.293,0,0,0,5.466-10.83h1.366a4.231,4.231,0,0,0,4.1-4.341V32.6a4.339,4.339,0,0,0-2.733-4.092v-.25H87.937a2.115,2.115,0,0,1,2.05,2.171Z" fill="#00d7df"/>
    <path id="Path_232" data-name="Path 232" d="M395.065,488h-1.533a1.533,1.533,0,0,0,0,3.065h1.533a1.533,1.533,0,1,0,0-3.065Z" transform="translate(-318.816 -393.346)" fill="#00d7df"/>
  </g>
</svg>
