<svg xmlns="http://www.w3.org/2000/svg" width="282.216" height="74.617" viewBox="0 0 282.216 74.617">
  <g id="Group_343" data-name="Group 343" transform="translate(-276 -3686)" opacity="0.83">
    <g id="pulse" transform="translate(276 3686)">
      <g id="Group_341" data-name="Group 341" transform="translate(0 0)">
        <path id="Path_235" data-name="Path 235" d="M94.423,94.693H78.3a3.453,3.453,0,0,0-3.077,1.886L61.591,123.3,40.1,63.134a3.454,3.454,0,0,0-6.33-.409L17.46,94.694H3.455a3.455,3.455,0,1,0,0,6.909H19.577a3.457,3.457,0,0,0,3.077-1.885L36.288,72.994l21.489,60.17a3.455,3.455,0,0,0,3.031,2.286c.075,0,.15.007.223.007a3.456,3.456,0,0,0,3.076-1.884L80.418,101.6H94.424a3.455,3.455,0,1,0,0-6.909Z" transform="translate(0 -60.84)" fill="#fff"/>
      </g>
    </g>
    <g id="pulse-2" data-name="pulse" transform="translate(368.984 3686)">
      <g id="Group_341-2" data-name="Group 341" transform="translate(0 0)">
        <path id="Path_235-2" data-name="Path 235" d="M94.423,94.693H78.3a3.453,3.453,0,0,0-3.077,1.886L61.591,123.3,40.1,63.134a3.454,3.454,0,0,0-6.33-.409L17.46,94.694H3.455a3.455,3.455,0,1,0,0,6.909H19.577a3.457,3.457,0,0,0,3.077-1.885L36.288,72.994l21.489,60.17a3.455,3.455,0,0,0,3.031,2.286c.075,0,.15.007.223.007a3.456,3.456,0,0,0,3.076-1.884L80.418,101.6H94.424a3.455,3.455,0,1,0,0-6.909Z" transform="translate(0 -60.84)" fill="#fff"/>
      </g>
    </g>
    <g id="pulse-3" data-name="pulse" transform="translate(460.337 3686)">
      <g id="Group_341-3" data-name="Group 341" transform="translate(0 0)">
        <path id="Path_235-3" data-name="Path 235" d="M94.423,94.693H78.3a3.453,3.453,0,0,0-3.077,1.886L61.591,123.3,40.1,63.134a3.454,3.454,0,0,0-6.33-.409L17.46,94.694H3.455a3.455,3.455,0,1,0,0,6.909H19.577a3.457,3.457,0,0,0,3.077-1.885L36.288,72.994l21.489,60.17a3.455,3.455,0,0,0,3.031,2.286c.075,0,.15.007.223.007a3.456,3.456,0,0,0,3.076-1.884L80.418,101.6H94.424a3.455,3.455,0,1,0,0-6.909Z" transform="translate(0 -60.84)" fill="#fff"/>
      </g>
    </g>
  </g>
</svg>
