<svg xmlns="http://www.w3.org/2000/svg" width="519" height="137.222" viewBox="0 0 519 137.222">
  <g id="Group_342" data-name="Group 342" transform="translate(-276 -3686)">
    <g id="pulse" transform="translate(276 3625.16)">
      <g id="Group_341" data-name="Group 341" transform="translate(0 60.84)">
        <path id="Path_235" data-name="Path 235" d="M173.647,123.1H144a6.35,6.35,0,0,0-5.658,3.469l-25.075,49.146L73.747,65.059a6.352,6.352,0,0,0-11.641-.752l-30,58.792H6.353a6.353,6.353,0,1,0,0,12.706H36a6.357,6.357,0,0,0,5.658-3.467L66.733,83.192l39.519,110.653a6.355,6.355,0,0,0,5.574,4.2c.137.008.275.013.411.013a6.356,6.356,0,0,0,5.656-3.464l30-58.794h25.757a6.353,6.353,0,1,0,0-12.706Z" transform="translate(0 -60.84)" fill="#fff"/>
      </g>
    </g>
    <g id="pulse-2" data-name="pulse" transform="translate(447 3625.16)">
      <g id="Group_341-2" data-name="Group 341" transform="translate(0 60.84)">
        <path id="Path_235-2" data-name="Path 235" d="M173.647,123.1H144a6.35,6.35,0,0,0-5.658,3.469l-25.075,49.146L73.747,65.059a6.352,6.352,0,0,0-11.641-.752l-30,58.792H6.353a6.353,6.353,0,1,0,0,12.706H36a6.357,6.357,0,0,0,5.658-3.467L66.733,83.192l39.519,110.653a6.355,6.355,0,0,0,5.574,4.2c.137.008.275.013.411.013a6.356,6.356,0,0,0,5.656-3.464l30-58.794h25.757a6.353,6.353,0,1,0,0-12.706Z" transform="translate(0 -60.84)" fill="#fff"/>
      </g>
    </g>
    <g id="pulse-3" data-name="pulse" transform="translate(615 3625.16)">
      <g id="Group_341-3" data-name="Group 341" transform="translate(0 60.84)">
        <path id="Path_235-3" data-name="Path 235" d="M173.647,123.1H144a6.35,6.35,0,0,0-5.658,3.469l-25.075,49.146L73.747,65.059a6.352,6.352,0,0,0-11.641-.752l-30,58.792H6.353a6.353,6.353,0,1,0,0,12.706H36a6.357,6.357,0,0,0,5.658-3.467L66.733,83.192l39.519,110.653a6.355,6.355,0,0,0,5.574,4.2c.137.008.275.013.411.013a6.356,6.356,0,0,0,5.656-3.464l30-58.794h25.757a6.353,6.353,0,1,0,0-12.706Z" transform="translate(0 -60.84)" fill="#fff"/>
      </g>
    </g>
  </g>
</svg>
