<svg xmlns="http://www.w3.org/2000/svg" width="79.633" height="79.633" viewBox="0 0 79.633 79.633">
  <g id="Group_359" data-name="Group 359" transform="translate(-522 -2899)">
    <g id="stopwatch" transform="translate(521.985 2899)">
      <g id="Group_338" data-name="Group 338" transform="translate(0.015)">
        <g id="Group_337" data-name="Group 337" transform="translate(0)">
          <path id="Path_203" data-name="Path 203" d="M125.132,154.233a29.117,29.117,0,1,0-29.117-29.117A29.117,29.117,0,0,0,125.132,154.233Zm-22.5-30.44h-3.9a26.458,26.458,0,0,1,25.079-25.079v3.9a1.323,1.323,0,1,0,2.647,0v-3.9a26.458,26.458,0,0,1,25.079,25.079h-5.226a1.323,1.323,0,0,0,0,2.647h5.226a26.458,26.458,0,0,1-25.079,25.079v-3.9a1.323,1.323,0,0,0-2.647,0v3.9A26.458,26.458,0,0,1,98.729,126.44h3.9a1.323,1.323,0,0,0,0-2.647Z" transform="translate(-79.91 -79.9)" fill="#00d7df"/>
          <path id="Path_204" data-name="Path 204" d="M108.4,27.892q-.594-1.028-1.257-2.014l3.278-3.277a1.327,1.327,0,0,0,0-1.877l-7.5-7.5a1.328,1.328,0,0,0-1.877,0L97.762,16.5A34.318,34.318,0,0,0,79.84,10.65v-8h9.293a1.327,1.327,0,1,0,0-2.654H67.892a1.327,1.327,0,1,0,0,2.654h9.293v8.008A34.478,34.478,0,0,0,48.643,27.869h-7.3a1.327,1.327,0,1,0,0,2.654h7.965c.035,0,.064-.017.1-.02a1.314,1.314,0,0,0,1.159-.664,31.846,31.846,0,1,1,0,30.577,1.314,1.314,0,0,0-1.156-.67c-.035,0-.065-.02-.1-.02H41.342a1.327,1.327,0,1,0,0,2.654h7.3A34.5,34.5,0,0,0,108.4,27.892Zm-8.471-9.8,2.052-2.051,5.623,5.622-2.055,2.054A34.874,34.874,0,0,0,99.931,18.094Z" transform="translate(-33.397)" fill="#00d7df"/>
          <path id="Path_205" data-name="Path 205" d="M13.25,265.323A1.324,1.324,0,0,0,11.926,264H1.338a1.323,1.323,0,0,0,0,2.647H11.926A1.324,1.324,0,0,0,13.25,265.323Z" transform="translate(-0.015 -220.201)" fill="#00d7df"/>
          <path id="Path_206" data-name="Path 206" d="M17.338,218.647H26.6a1.323,1.323,0,1,0,0-2.647H17.338a1.323,1.323,0,1,0,0,2.647Z" transform="translate(-13.368 -180.165)" fill="#00d7df"/>
          <path id="Path_207" data-name="Path 207" d="M27.926,313.323A1.324,1.324,0,0,0,26.6,312H17.338a1.323,1.323,0,0,0,0,2.647H26.6A1.324,1.324,0,0,0,27.926,313.323Z" transform="translate(-13.368 -260.238)" fill="#00d7df"/>
          <path id="Path_208" data-name="Path 208" d="M204.039,221.538a1.324,1.324,0,0,0,1.871,0l18.4-18.4a1.323,1.323,0,0,0-1.871-1.871l-17.461,17.461-7.875-7.875a1.323,1.323,0,0,0-1.871,1.871Z" transform="translate(-162.479 -167.539)" fill="#00d7df"/>
        </g>
      </g>
    </g>
  </g>
</svg>
