<svg xmlns="http://www.w3.org/2000/svg" width="1368" height="518" viewBox="0 0 1368 518">
  <g id="Group_360" data-name="Group 360" transform="translate(-276 -3514)">
    <path id="Union_2" data-name="Union 2" d="M-4630.077-1634v-19.922H-4650v-19.156h19.923V-1693h19.155v19.922H-4591v19.156h-19.922V-1634Z" transform="translate(4995 5330)" fill="rgba(255,255,255,0.67)"/>
    <path id="Union_10" data-name="Union 10" d="M-4640.883-1665v-9.454H-4650v-9.091h9.117V-1693h8.767v9.454H-4623v9.091h-9.117V-1665Z" transform="translate(5092 5207)" fill="rgba(255,255,255,0.67)"/>
    <path id="Union_3" data-name="Union 3" d="M-4623.662-1615v-26.337H-4650v-25.325h26.338V-1693h25.324v26.337H-4572v25.325h-26.338V-1615Z" transform="translate(5277 5602)" fill="#fff"/>
    <path id="Union_4" data-name="Union 4" d="M-4637.844-1657v-12.155H-4650v-11.689h12.156V-1693h11.688v12.155H-4614v11.689h-12.156V-1657Z" transform="translate(5538 5266)" fill="rgba(255,255,255,0.86)"/>
    <path id="Union_7" data-name="Union 7" d="M-4637.844-1657v-12.155H-4650v-11.689h12.156V-1693h11.688v12.155H-4614v11.689h-12.156V-1657Z" transform="translate(5939 5689)" fill="rgba(255,255,255,0.86)"/>
    <path id="Union_9" data-name="Union 9" d="M-4637.844-1657v-12.155H-4650v-11.689h12.156V-1693h11.688v12.155H-4614v11.689h-12.156V-1657Z" transform="translate(5691 5590)" fill="#fff"/>
    <path id="Union_8" data-name="Union 8" d="M-4637.844-1657v-12.155H-4650v-11.689h12.156V-1693h11.688v12.155H-4614v11.689h-12.156V-1657Z" transform="translate(5968 5217)" fill="rgba(255,255,255,0.86)"/>
    <path id="Union_5" data-name="Union 5" d="M-4637.506-1656v-12.493H-4650v-12.013h12.494V-1693h12.013v12.493H-4613v12.013h-12.494V-1656Z" transform="translate(6110 5602)" fill="rgba(255,255,255,0.67)"/>
    <path id="Union_6" data-name="Union 6" d="M-4630.077-1634v-19.922H-4650v-19.156h19.923V-1693h19.155v19.922H-4591v19.156h-19.922V-1634Z" transform="translate(6189 5249)" fill="rgba(255,255,255,0.67)"/>
    <g id="Group_342" data-name="Group 342">
      <g id="pulse" transform="translate(276 3625.16)">
        <g id="Group_341" data-name="Group 341" transform="translate(0 60.84)">
          <path id="Path_235" data-name="Path 235" d="M173.647,123.1H144a6.35,6.35,0,0,0-5.658,3.469l-25.075,49.146L73.747,65.059a6.352,6.352,0,0,0-11.641-.752l-30,58.792H6.353a6.353,6.353,0,1,0,0,12.706H36a6.357,6.357,0,0,0,5.658-3.467L66.733,83.192l39.519,110.653a6.355,6.355,0,0,0,5.574,4.2c.137.008.275.013.411.013a6.356,6.356,0,0,0,5.656-3.464l30-58.794h25.757a6.353,6.353,0,1,0,0-12.706Z" transform="translate(0 -60.84)" fill="#fff"/>
        </g>
      </g>
      <g id="pulse-2" data-name="pulse" transform="translate(447 3625.16)">
        <g id="Group_341-2" data-name="Group 341" transform="translate(0 60.84)">
          <path id="Path_235-2" data-name="Path 235" d="M173.647,123.1H144a6.35,6.35,0,0,0-5.658,3.469l-25.075,49.146L73.747,65.059a6.352,6.352,0,0,0-11.641-.752l-30,58.792H6.353a6.353,6.353,0,1,0,0,12.706H36a6.357,6.357,0,0,0,5.658-3.467L66.733,83.192l39.519,110.653a6.355,6.355,0,0,0,5.574,4.2c.137.008.275.013.411.013a6.356,6.356,0,0,0,5.656-3.464l30-58.794h25.757a6.353,6.353,0,1,0,0-12.706Z" transform="translate(0 -60.84)" fill="#fff"/>
        </g>
      </g>
      <g id="pulse-3" data-name="pulse" transform="translate(615 3625.16)">
        <g id="Group_341-3" data-name="Group 341" transform="translate(0 60.84)">
          <path id="Path_235-3" data-name="Path 235" d="M173.647,123.1H144a6.35,6.35,0,0,0-5.658,3.469l-25.075,49.146L73.747,65.059a6.352,6.352,0,0,0-11.641-.752l-30,58.792H6.353a6.353,6.353,0,1,0,0,12.706H36a6.357,6.357,0,0,0,5.658-3.467L66.733,83.192l39.519,110.653a6.355,6.355,0,0,0,5.574,4.2c.137.008.275.013.411.013a6.356,6.356,0,0,0,5.656-3.464l30-58.794h25.757a6.353,6.353,0,1,0,0-12.706Z" transform="translate(0 -60.84)" fill="#fff"/>
        </g>
      </g>
    </g>
    <g id="Group_343" data-name="Group 343" transform="translate(1085.784 154.605)" opacity="0.83">
      <g id="pulse-4" data-name="pulse" transform="translate(276 3686)">
        <g id="Group_341-4" data-name="Group 341" transform="translate(0 0)">
          <path id="Path_235-4" data-name="Path 235" d="M94.423,94.693H78.3a3.453,3.453,0,0,0-3.077,1.886L61.591,123.3,40.1,63.134a3.454,3.454,0,0,0-6.33-.409L17.46,94.694H3.455a3.455,3.455,0,1,0,0,6.909H19.577a3.457,3.457,0,0,0,3.077-1.885L36.288,72.994l21.489,60.17a3.455,3.455,0,0,0,3.031,2.286c.075,0,.15.007.223.007a3.456,3.456,0,0,0,3.076-1.884L80.418,101.6H94.424a3.455,3.455,0,1,0,0-6.909Z" transform="translate(0 -60.84)" fill="#fff"/>
        </g>
      </g>
      <g id="pulse-5" data-name="pulse" transform="translate(368.984 3686)">
        <g id="Group_341-5" data-name="Group 341" transform="translate(0 0)">
          <path id="Path_235-5" data-name="Path 235" d="M94.423,94.693H78.3a3.453,3.453,0,0,0-3.077,1.886L61.591,123.3,40.1,63.134a3.454,3.454,0,0,0-6.33-.409L17.46,94.694H3.455a3.455,3.455,0,1,0,0,6.909H19.577a3.457,3.457,0,0,0,3.077-1.885L36.288,72.994l21.489,60.17a3.455,3.455,0,0,0,3.031,2.286c.075,0,.15.007.223.007a3.456,3.456,0,0,0,3.076-1.884L80.418,101.6H94.424a3.455,3.455,0,1,0,0-6.909Z" transform="translate(0 -60.84)" fill="#fff"/>
        </g>
      </g>
      <g id="pulse-6" data-name="pulse" transform="translate(460.337 3686)">
        <g id="Group_341-6" data-name="Group 341" transform="translate(0 0)">
          <path id="Path_235-6" data-name="Path 235" d="M94.423,94.693H78.3a3.453,3.453,0,0,0-3.077,1.886L61.591,123.3,40.1,63.134a3.454,3.454,0,0,0-6.33-.409L17.46,94.694H3.455a3.455,3.455,0,1,0,0,6.909H19.577a3.457,3.457,0,0,0,3.077-1.885L36.288,72.994l21.489,60.17a3.455,3.455,0,0,0,3.031,2.286c.075,0,.15.007.223.007a3.456,3.456,0,0,0,3.076-1.884L80.418,101.6H94.424a3.455,3.455,0,1,0,0-6.909Z" transform="translate(0 -60.84)" fill="#fff"/>
        </g>
      </g>
    </g>
  </g>
</svg>
