<svg xmlns="http://www.w3.org/2000/svg" width="71.982" height="71.982" viewBox="0 0 71.982 71.982">
  <g id="management" transform="translate(-1 -1)">
    <path id="Path_222" data-name="Path 222" d="M23,5H34.61V7.322H23Z" transform="translate(3.542 0.644)" fill="#00d7df"/>
    <path id="Path_223" data-name="Path 223" d="M23,9H34.61v2.322H23Z" transform="translate(3.542 1.288)" fill="#00d7df"/>
    <path id="Path_224" data-name="Path 224" d="M27,13h2.322v2.322H27Z" transform="translate(4.186 1.932)" fill="#00d7df"/>
    <path id="Path_225" data-name="Path 225" d="M23,13h2.322v2.322H23Z" transform="translate(3.542 1.932)" fill="#00d7df"/>
    <path id="Path_226" data-name="Path 226" d="M31,13h2.322v2.322H31Z" transform="translate(4.83 1.932)" fill="#00d7df"/>
    <path id="Path_227" data-name="Path 227" d="M44.1,41.975l3.823-3.823H65.56a5.559,5.559,0,0,0,5.529-4.947l1.86-16.739a5.757,5.757,0,0,0,.034-.616,5.567,5.567,0,0,0-5.561-5.561h-25l.346-3.111a5.718,5.718,0,0,0,.034-.615A5.567,5.567,0,0,0,37.235,1H6.561A5.567,5.567,0,0,0,1,6.561a5.7,5.7,0,0,0,.034.614l1.86,16.742a5.557,5.557,0,0,0,5.529,4.947H19.576v9.288H14.932V33.508H1v11.61H14.932V40.474h4.644v11.61H14.932V47.44H1V59.05H14.932V54.406h4.644v11.61H14.932V61.372H1v11.61H14.932V68.338H21.9V54.406H34.669v3.483h5.805v4.644H34.669v9.288H48.6V68.338h9.288v3.483H71.821V62.533H66.016V57.889h5.805V48.6H57.889v3.483H48.6V48.6H42.8V42.7a2.81,2.81,0,0,0,1.3-.726ZM12.61,42.8H3.322V35.83H12.61Zm0,13.932H3.322V49.762H12.61Zm0,13.932H3.322V63.694H12.61Zm41.8-49.923a3.483,3.483,0,1,1,3.483,3.483A3.487,3.487,0,0,1,54.406,20.737ZM64.855,35.83H50.923V33.508a6.966,6.966,0,0,1,13.932,0Zm-22.7-23.22H67.421a3.243,3.243,0,0,1,3.239,3.239,3.093,3.093,0,0,1-.021.358L68.78,32.947a3.224,3.224,0,0,1-1.6,2.443V33.508a9.294,9.294,0,0,0-5.451-8.449,5.8,5.8,0,1,0-7.673,0A9.294,9.294,0,0,0,48.6,33.508V35.83H46.96l-4.5,4.5a.5.5,0,0,1-.821-.34V35.83H38.608a3.235,3.235,0,0,1-3.219-2.882l-.454-4.084h.44A5.559,5.559,0,0,0,40.9,23.917ZM5.2,23.661,3.343,6.918a3.058,3.058,0,0,1-.021-.356A3.243,3.243,0,0,1,6.561,3.322H37.235a3.243,3.243,0,0,1,3.239,3.239,3.092,3.092,0,0,1-.021.358l-1.86,16.741a3.235,3.235,0,0,1-3.219,2.883H30.025v4.163a.5.5,0,0,1-.821.34l-3.823-3.823v-3a9.294,9.294,0,0,0-5.451-8.449,5.805,5.805,0,1,0-7.674,0A9.294,9.294,0,0,0,6.805,24.22V26.1a3.226,3.226,0,0,1-1.6-2.443ZM12.61,11.449a3.483,3.483,0,1,1,3.483,3.483A3.487,3.487,0,0,1,12.61,11.449ZM23.059,26.542H9.127V24.22a6.966,6.966,0,1,1,13.932,0ZM46.279,69.5H36.991V64.855h9.288Zm23.22,0H60.211V64.855H69.5ZM60.211,50.923H69.5v4.644H60.211Zm-2.322,3.483v3.483h5.805v4.644H57.889v3.483H48.6V62.533H42.8V57.889H48.6V54.406Zm-11.61,1.161H36.991V50.923h9.288ZM34.669,48.6v3.483H21.9V28.864h1.841l3.822,3.822a2.8,2.8,0,0,0,4.786-1.981V28.864H32.6l.482,4.341a5.557,5.557,0,0,0,5.529,4.947h.7v1.841a2.792,2.792,0,0,0,1.161,2.26V48.6Z" transform="translate(0)" fill="#00d7df"/>
    <path id="Path_228" data-name="Path 228" d="M5,57H9.644v2.322H5Z" transform="translate(0.644 9.016)" fill="#00d7df"/>
    <path id="Path_229" data-name="Path 229" d="M5,45H9.644v2.322H5Z" transform="translate(0.644 7.084)" fill="#00d7df"/>
    <path id="Path_230" data-name="Path 230" d="M5,33H9.644v2.322H5Z" transform="translate(0.644 5.152)" fill="#00d7df"/>
  </g>
</svg>
