<svg xmlns="http://www.w3.org/2000/svg" xmlns:xlink="http://www.w3.org/1999/xlink" width="1165.68" height="767.891" viewBox="0 0 1165.68 767.891">
  <defs>
    <linearGradient id="linear-gradient" x1="0.5" x2="0.5" y2="1" gradientUnits="objectBoundingBox">
      <stop offset="0" stop-color="#00d4e0"/>
      <stop offset="0" stop-color="#00d6e0"/>
      <stop offset="1" stop-color="#00dfde"/>
    </linearGradient>
  </defs>
  <path id="Path_198" data-name="Path 198" d="M7588.843,1482.923s45.944,45.641,72.084,73.753,32.476,38.7,32.476,38.7,9.408,10.182,23.445,33.131,13.7,29.167,17.575,42.668,10.058,37.995,9.448,57.6c-.152,4.9,0,9.078,0,17.028v14.77s-2.219,31.076-9.448,50.8c-1.946,7.057-4.229,13.965-6.584,20.479-5.506,15.224-10.991,26.739-10.991,26.739l-29.886,52.157-45.065,58.384s-17.171,22.451-33.11,37.509c-7.9,7.88-20.228,23.769-32.015,34.2-19.566,17.32-17.619,17.418-41.721,40-6.771,6.972-18.11,19.066-29.089,28.481s-16.859,15.647-28.445,23.671-39.05,27.843-50.629,34.894c-49.233,29.984-135.632,82.927-135.632,82.927H6578.232l2.231-767.891Z" transform="translate(-6578.232 -1482.923)" fill="url(#linear-gradient)"/>
</svg>
