<svg xmlns="http://www.w3.org/2000/svg" width="87.569" height="87.569" viewBox="0 0 87.569 87.569">
  <g id="punctuality" transform="translate(-1 -1)">
    <path id="Path_233" data-name="Path 233" d="M58.908,1a29.759,29.759,0,0,0-26.4,16.164A18.289,18.289,0,0,0,9.474,34.9v8.474a5.655,5.655,0,0,0,5.65,5.65H17.58a19.021,19.021,0,0,0,4.606,5.434v1.754a2.835,2.835,0,0,1-1.63,2.559L9.966,63.711A15.6,15.6,0,0,0,1,77.791V88.569H54.671V77.791a15.593,15.593,0,0,0-8.966-14.079L35.115,58.77a2.836,2.836,0,0,1-1.63-2.561V54.455a19.023,19.023,0,0,0,3.549-3.77A29.659,29.659,0,1,0,58.908,1ZM27.836,19.361A15.555,15.555,0,0,1,43.372,34.9v3.61a5.591,5.591,0,0,0-2.825-.785V34.9H34.659a28.328,28.328,0,0,1-14.57-4.035l-1.155-.693-3.809,5.713v1.84a5.591,5.591,0,0,0-2.825.785V34.9A15.555,15.555,0,0,1,27.836,19.361Zm15.13-2.645,3.958,3.958,2-2-3.96-3.96A21.2,21.2,0,0,1,57.5,9.527v5.6h2.825V9.546a21.071,21.071,0,0,1,12.515,5.189L68.9,18.676l2,2,3.941-3.941a21.062,21.062,0,0,1,5.189,12.515H74.445v2.825h5.578a21.071,21.071,0,0,1-5.189,12.515l-3.941-3.941-2,2,3.941,3.941a21.062,21.062,0,0,1-12.515,5.189V46.2H57.5v5.58a20.969,20.969,0,0,1-12.4-5.08,5.6,5.6,0,0,0,1.1-3.325V34.9a18.3,18.3,0,0,0-6.217-13.736,21.137,21.137,0,0,1,2.986-4.446ZM40.518,40.547h.03a2.825,2.825,0,1,1,0,5.65H39.393A18.711,18.711,0,0,0,40.518,40.547ZM15.124,46.2a2.825,2.825,0,1,1,0-5.65h.03a18.625,18.625,0,0,0,1.124,5.65ZM21.75,61.329a6,6,0,0,0,.552-.308l3.537,3.537L21.594,68.8,20.1,62.1ZM28.5,67.222l2,18.522H25.17l2-18.522.668-.667ZM3.825,77.791a12.759,12.759,0,0,1,7.336-11.52l6.322-2.951,2.47,11.117,4.031-4.031L22.33,85.744H12.3V77.27H9.474v8.474H3.825Zm48.022,0v7.953H46.2V77.27H43.372v8.474H33.341L31.687,70.407l4.031,4.031,2.47-11.117,6.322,2.951A12.759,12.759,0,0,1,51.846,77.791ZM35.567,62.1l-1.49,6.7-4.244-4.244,3.537-3.537a5.523,5.523,0,0,0,.552.308Zm-4.158-3.11-3.573,3.573-3.573-3.573A5.616,5.616,0,0,0,25,56.329a18.587,18.587,0,0,0,2.338,1.078l.5.185.5-.185a18.586,18.586,0,0,0,2.338-1.078A5.633,5.633,0,0,0,31.409,58.988Zm-3.573-4.422a16.078,16.078,0,0,1-9.887-14.786V36.738L19.8,33.953a31.162,31.162,0,0,0,14.854,3.77h3.063v2.056A16.077,16.077,0,0,1,27.836,54.565ZM58.908,57.5A26.7,26.7,0,0,1,39.35,49.022h1.2a5.593,5.593,0,0,0,2.335-.52,23.988,23.988,0,1,0-5.2-29.074,18.329,18.329,0,0,0-2.479-1.335,26.833,26.833,0,1,1,23.7,39.4Z" transform="translate(0 0)" fill="#00d7df"/>
    <path id="Path_234" data-name="Path 234" d="M49.474,23.474h-5.65V15H41V26.3h8.474Z" transform="translate(16.496 5.774)" fill="#00d7df"/>
  </g>
</svg>
